<svg xmlns="http://www.w3.org/2000/svg" width="256" height="256" viewBox="0 0 100 100"><path fill="#fff" d="M5.18 80.24L5.18 80.24Q4.55 82.22 2.34 82.22Q0.14 82.22-2.65 79.79L-2.65 79.79Q0.05 71.87 8.78 54.27Q17.51 36.68 20.12 27.95L20.12 27.95Q20.48 26.51 20.48 25.97L20.48 25.97Q20.48 24.62 18.50 21.83L18.50 21.83L17.78 20.84L17.96 19.67Q25.61 17.51 34.88 17.51L34.88 17.51L40.37 17.87Q41.36 19.22 41.90 22.01L41.90 22.01Q43.34 28.85 43.34 57.20L43.34 57.20Q43.34 68.18 45.23 72.68L45.23 72.68Q45.95 74.39 46.67 74.39Q47.39 74.39 51.08 72.59L51.08 72.59L52.25 72.05L54.05 75.29Q50.63 78.62 46.44 80.55Q42.26 82.49 38.75 82.49L38.75 82.49Q29.66 82.49 29.66 68.36L29.66 68.36L29.66 61.25Q27.32 60.71 22.55 60.71Q17.78 60.71 12.11 61.61L12.11 61.61Q7.61 72.05 5.18 80.24ZM14.99 55.13L29.84 55.13L29.93 44.69Q29.93 31.01 28.76 26.15L28.76 26.15Q28.04 26.15 27.68 26.33L27.68 26.33Q25.16 33.26 22.95 38.07Q20.75 42.89 18.18 48.34Q15.62 53.78 14.99 55.13L14.99 55.13ZM63.86 17.51L63.86 17.51L93.92 18.50L102.38 18.32Q102.65 20.21 102.65 22.28Q102.65 24.35 101.93 25.25Q101.21 26.15 99.32 26.15L99.32 26.15Q99.14 26.15 86.63 24.98L86.63 24.98Q86.27 29.03 83.93 38.84Q81.59 48.65 79.43 59.81Q77.27 70.97 77.18 79.88L77.18 79.88Q73.67 81.68 62.78 81.68L62.78 81.68L62.15 81.68Q62.15 77 67.28 53.78Q72.41 30.56 72.41 25.52L72.41 25.52Q72.41 25.16 72.23 24.26L72.23 24.26L68.63 24.26Q61.25 24.26 57.29 26.51L57.29 26.51Q55.22 23.81 54.77 18.59L54.77 18.59Q57.83 17.51 63.86 17.51Z"></path></svg>